<svg width="13" height="10" viewBox="0 0 13 10" fill="none" xmlns="http://www.w3.org/2000/svg">
<path d="M1.76583e-07 1.11111C1.50275e-07 0.810186 0.0804038 0.549769 0.241211 0.329862C0.402018 0.109954 0.592448 6.07865e-07 0.8125 5.88628e-07L12.1875 -4.05806e-07C12.4076 -4.25044e-07 12.598 0.109953 12.7588 0.329861C12.9196 0.549768 13 0.810185 13 1.11111C13 1.41204 12.9196 1.67245 12.7588 1.89236L7.07129 9.67014C6.91048 9.89005 6.72005 10 6.5 10C6.27995 10 6.08952 9.89005 5.92871 9.67014L0.241211 1.89236C0.0804039 1.67245 2.02891e-07 1.41204 1.76583e-07 1.11111Z" fill="#BC7AFE"/>
</svg>
