<svg width="13" height="10" viewBox="0 0 13 10" fill="none" xmlns="http://www.w3.org/2000/svg">
<path d="M13 8.88889C13 9.18982 12.9196 9.45023 12.7588 9.67014C12.598 9.89005 12.4076 10 12.1875 10L0.812498 10C0.592446 10 0.402017 9.89004 0.241209 9.67014C0.080402 9.45023 -1.6068e-06 9.18981 -1.55418e-06 8.88889C-1.50157e-06 8.58796 0.0804022 8.32754 0.24121 8.10764L5.92871 0.329862C6.08952 0.109955 6.27995 1.09802e-06 6.5 1.1365e-06C6.72005 1.17497e-06 6.91048 0.109955 7.07129 0.329862L12.7588 8.10764C12.9196 8.32755 13 8.58796 13 8.88889Z" fill="#BC7AFE"/>
</svg>
