<svg width="155" height="107" viewBox="0 0 155 107" fill="none" xmlns="http://www.w3.org/2000/svg">
<path fill-rule="evenodd" clip-rule="evenodd" d="M77.5009 0.90625C55.885 0.90625 36.96 13.8498 23.9559 25.8265C17.3494 31.911 12.021 37.9774 8.34459 42.5184C6.5028 44.7928 5.06633 46.6963 4.08208 48.0435C3.58973 48.7175 3.20988 49.2528 2.94847 49.6268C2.81773 49.8138 2.71651 49.9602 2.64561 50.0639L2.56201 50.1862L2.53739 50.2228L0.405273 53.6028L2.52944 56.7655L2.53739 56.7772L2.56201 56.8138L2.64561 56.9361C2.71651 57.0397 2.81773 57.1862 2.94847 57.3732C3.20988 57.7472 3.58973 58.2825 4.08208 58.9565C5.06633 60.3037 6.5028 62.2072 8.34459 64.4816C12.021 69.0226 17.3494 75.0891 23.9559 81.1737C36.96 93.1502 55.885 106.094 77.5009 106.094C99.1166 106.094 118.041 93.1502 131.045 81.1737C137.652 75.0891 142.981 69.0226 146.657 64.4816C148.499 62.2072 149.935 60.3037 150.919 58.9565C151.411 58.2825 151.791 57.7472 152.052 57.3732C152.183 57.1862 152.285 57.0397 152.355 56.9361L152.439 56.8138L152.464 56.7772L152.475 56.7616L154.665 53.5L152.472 50.2345L152.464 50.2228L152.439 50.1862L152.355 50.0639C152.285 49.9602 152.183 49.8138 152.052 49.6268C151.791 49.2528 151.411 48.7175 150.919 48.0435C149.935 46.6963 148.499 44.7928 146.657 42.5184C142.981 37.9774 137.652 31.911 131.045 25.8265C118.041 13.8498 99.1166 0.90625 77.5009 0.90625ZM17.4281 57.1278C16.3109 55.7479 15.3599 54.5215 14.5883 53.5C15.3599 52.4785 16.3109 51.2521 17.4281 49.8722C20.8488 45.6476 25.7899 40.0266 31.8736 34.4235C44.2497 23.0252 60.3872 12.5937 77.5009 12.5937C94.6138 12.5937 110.752 23.0252 123.127 34.4235C129.211 40.0266 134.153 45.6476 137.573 49.8722C138.69 51.2521 139.641 52.4785 140.413 53.5C139.641 54.5215 138.69 55.7479 137.573 57.1278C134.153 61.3524 129.211 66.9733 123.127 72.5763C110.752 83.9748 94.6138 94.4062 77.5009 94.4062C60.3872 94.4062 44.2497 83.9748 31.8736 72.5763C25.7899 66.9733 20.8488 61.3524 17.4281 57.1278ZM95.0314 53.5C95.0314 63.1819 87.1829 71.0312 77.5001 71.0312C67.8182 71.0312 59.9693 63.1819 59.9693 53.5C59.9693 43.8181 67.8182 35.9687 77.5001 35.9687C87.1829 35.9687 95.0314 43.8181 95.0314 53.5ZM106.719 53.5C106.719 69.6373 93.6375 82.7187 77.5001 82.7187C61.3635 82.7187 48.2818 69.6373 48.2818 53.5C48.2818 37.3629 61.3635 24.2812 77.5001 24.2812C93.6375 24.2812 106.719 37.3629 106.719 53.5Z" fill="#5941A9"/>
</svg>
