<svg width="155" height="105" viewBox="0 0 155 105" fill="none" xmlns="http://www.w3.org/2000/svg">
<path d="M154 50.5C153.775 49.9939 146.566 40.0661 134.5 28C118.431 11.9287 99.7188 0 77.3751 0C55.0314 0 35.5695 12.9287 19.5001 29C7.43458 41.0662 1.22534 49.9939 1.00012 50.5C0.709007 51.1553 0.558594 51.8644 0.558594 52.5814C0.558594 53.2984 0.709007 54.0075 1.00012 54.6628C1.22534 55.1695 11.4345 67.9357 23.5 80C39.5694 96.0675 55.0315 105 77.3752 105C99.7189 105 115.931 95.5675 132 79.5C144.066 67.4357 153.775 55.1696 154 54.6628C154.291 54.0075 154.442 53.2985 154.442 52.5814C154.442 51.8644 154.291 51.1553 154 50.5ZM77.3752 29.9379C81.9365 29.9379 86.3954 31.2905 90.188 33.8246C93.9807 36.3588 96.9366 39.9606 98.6822 44.1747C100.428 48.3889 100.884 53.026 99.9946 57.4997C99.1047 61.9733 96.9082 66.0827 93.6829 69.308C90.4575 72.5334 86.3482 74.7299 81.8745 75.6197C77.4008 76.5096 72.7637 76.0529 68.5496 74.3074C64.3354 72.5618 60.7336 69.6058 58.1994 65.8132C55.6653 62.0206 54.3127 57.5617 54.3127 53.0004C54.3196 46.8859 56.7516 41.0239 61.0752 36.7003C65.3987 32.3768 71.2608 29.9448 77.3752 29.9379Z" fill="#5941A9"/>
</svg>
