<svg width="111" height="51" viewBox="0 0 253 193" fill="none" xmlns="http://www.w3.org/2000/svg">
<path fillRule="evenodd" clipRule="evenodd" d="M77.5009 0.90625C55.885 0.90625 36.96 13.8498 23.9559 25.8265C17.3494 31.911 12.021 37.9774 8.34459 42.5184C6.5028 44.7928 5.06633 46.6963 4.08208 48.0435C3.58973 48.7175 3.20988 49.2528 2.94847 49.6268C2.81773 49.8138 2.71651 49.9602 2.64561 50.0639L2.56201 50.1862L2.53739 50.2228L0.405273 53.6028L2.52944 56.7655L2.53739 56.7772L2.56201 56.8138L2.64561 56.9361C2.71651 57.0397 2.81773 57.1862 2.94847 57.3732C3.20988 57.7472 3.58973 58.2825 4.08208 58.9565C5.06633 60.3037 6.5028 62.2072 8.34459 64.4816C12.021 69.0226 17.3494 75.0891 23.9559 81.1737C36.96 93.1502 55.885 106.094 77.5009 106.094C99.1166 106.094 118.041 93.1502 131.045 81.1737C137.652 75.0891 142.981 69.0226 146.657 64.4816C148.499 62.2072 149.935 60.3037 150.919 58.9565C151.411 58.2825 151.791 57.7472 152.052 57.3732C152.183 57.1862 152.285 57.0397 152.355 56.9361L152.439 56.8138L152.464 56.7772L152.475 56.7616L154.665 53.5L152.472 50.2345L152.464 50.2228L152.439 50.1862L152.355 50.0639C152.285 49.9602 152.183 49.8138 152.052 49.6268C151.791 49.2528 151.411 48.7175 150.919 48.0435C149.935 46.6963 148.499 44.7928 146.657 42.5184C142.981 37.9774 137.652 31.911 131.045 25.8265C118.041 13.8498 99.1166 0.90625 77.5009 0.90625ZM17.4281 57.1278C16.3109 55.7479 15.3599 54.5215 14.5883 53.5C15.3599 52.4785 16.3109 51.2521 17.4281 49.8722C20.8488 45.6476 25.7899 40.0266 31.8736 34.4235C44.2497 23.0252 60.3872 12.5937 77.5009 12.5937C94.6138 12.5937 110.752 23.0252 123.127 34.4235C129.211 40.0266 134.153 45.6476 137.573 49.8722C138.69 51.2521 139.641 52.4785 140.413 53.5C139.641 54.5215 138.69 55.7479 137.573 57.1278C134.153 61.3524 129.211 66.9733 123.127 72.5763C110.752 83.9748 94.6138 94.4062 77.5009 94.4062C60.3872 94.4062 44.2497 83.9748 31.8736 72.5763C25.7899 66.9733 20.8488 61.3524 17.4281 57.1278ZM95.0314 53.5C95.0314 63.1819 87.1829 71.0312 77.5001 71.0312C67.8182 71.0312 59.9693 63.1819 59.9693 53.5C59.9693 43.8181 67.8182 35.9687 77.5001 35.9687C87.1829 35.9687 95.0314 43.8181 95.0314 53.5ZM106.719 53.5C106.719 69.6373 93.6375 82.7187 77.5001 82.7187C61.3635 82.7187 48.2818 69.6373 48.2818 53.5C48.2818 37.3629 61.3635 24.2812 77.5001 24.2812C93.6375 24.2812 106.719 37.3629 106.719 53.5Z" fill="#5941A9"/>
<path d="M230.208 136.073C230.208 138.541 228.207 140.542 225.739 140.542C223.271 140.542 221.271 138.541 221.271 136.073C221.271 133.605 223.271 131.604 225.739 131.604C228.207 131.604 230.208 133.605 230.208 136.073Z" fill="#5941A9"/>
<path d="M212.333 136.073C212.333 138.541 210.332 140.542 207.864 140.542C205.396 140.542 203.396 138.541 203.396 136.073C203.396 133.605 205.396 131.604 207.864 131.604C210.332 131.604 212.333 133.605 212.333 136.073Z" fill="#5941A9"/>
<path d="M216.802 122.667C219.27 122.667 221.271 124.667 221.271 127.135C221.271 129.603 219.27 131.604 216.802 131.604C214.334 131.604 212.333 129.603 212.333 127.135C212.333 124.667 214.334 122.667 216.802 122.667Z" fill="#5941A9"/>
<path d="M216.802 140.542C219.27 140.542 221.271 142.542 221.271 145.01C221.271 147.478 219.27 149.479 216.802 149.479C214.334 149.479 212.333 147.478 212.333 145.01C212.333 142.542 214.334 140.542 216.802 140.542Z" fill="#5941A9"/>
<path fillRule="evenodd" clipRule="evenodd" d="M150.715 95.5786C153.727 94.5104 156.786 94.3646 159.32 94.3646H162.969C169.123 94.3646 175.125 96.2737 180.148 99.8285L183.138 101.945C184.707 103.054 186.58 103.65 188.5 103.65C190.421 103.65 192.295 103.054 193.862 101.945L196.853 99.8286C201.876 96.2737 207.878 94.3646 214.031 94.3646H217.681C220.215 94.3646 223.274 94.5104 226.285 95.5785C234.885 98.6285 241.686 105.637 246.164 116.977C250.597 128.201 252.874 143.903 252.516 165.062C252.44 169.528 251.883 174.533 250.166 179.041C248.427 183.608 245.387 187.913 240.274 190.358C237.365 191.749 233.937 192.677 230.05 192.677C225.361 192.677 221.504 191.326 218.478 189.343C215.663 187.498 213.202 185.113 211.099 183.075C210.843 182.827 210.592 182.584 210.347 182.348C207.934 180.026 205.906 178.214 203.655 177.047C200.811 175.572 197.655 174.802 194.452 174.802H182.549C179.345 174.802 176.189 175.572 173.345 177.047C171.095 178.214 169.066 180.026 166.654 182.348C166.409 182.584 166.158 182.827 165.902 183.075C163.799 185.113 161.338 187.498 158.523 189.343C155.496 191.326 151.64 192.677 146.951 192.677C143.064 192.677 139.635 191.749 136.726 190.358C131.613 187.913 128.574 183.608 126.834 179.041C125.117 174.533 124.56 169.528 124.485 165.062C124.127 143.904 126.403 128.201 130.836 116.977C135.315 105.637 142.116 98.6285 150.715 95.5786ZM159.32 103.302C157.037 103.302 155.231 103.46 153.703 104.002C148.105 105.987 142.925 110.7 139.149 120.261C135.326 129.938 133.073 144.316 133.421 164.911C133.488 168.858 133.986 172.708 135.187 175.86C136.364 178.952 138.105 181.111 140.582 182.295C142.404 183.166 144.522 183.74 146.951 183.74C149.842 183.74 152.004 182.929 153.623 181.868C155.683 180.518 157.514 178.75 159.714 176.625C159.957 176.39 160.204 176.152 160.456 175.909C162.845 173.609 165.702 170.942 169.231 169.113C173.346 166.978 177.914 165.865 182.549 165.865H194.452C199.087 165.865 203.655 166.978 207.77 169.113C211.299 170.942 214.156 173.609 216.544 175.909C216.797 176.152 217.044 176.39 217.287 176.625C219.486 178.75 221.317 180.518 223.377 181.868C224.997 182.929 227.159 183.74 230.05 183.74C232.479 183.74 234.596 183.166 236.418 182.295C238.896 181.111 240.636 178.952 241.814 175.86C243.014 172.708 243.513 168.858 243.58 164.911C243.928 144.316 241.675 129.938 237.852 120.261C234.076 110.7 228.895 105.987 223.298 104.002C221.77 103.46 219.964 103.302 217.681 103.302H214.031C209.727 103.302 205.529 104.637 202.016 107.124L199.025 109.24C195.948 111.418 192.271 112.588 188.5 112.588C184.73 112.588 181.053 111.418 177.976 109.24L174.985 107.124C171.472 104.637 167.273 103.302 162.969 103.302H159.32ZM161.688 124.156C164.156 124.156 166.157 126.157 166.157 128.625V133.094H170.625C173.093 133.094 175.094 135.095 175.094 137.563C175.094 140.03 173.093 142.031 170.625 142.031H166.157V146.5C166.157 148.968 164.156 150.969 161.688 150.969C159.22 150.969 157.219 148.968 157.219 146.5V142.031H152.75C150.282 142.031 148.282 140.03 148.282 137.563C148.282 135.095 150.282 133.094 152.75 133.094H157.219V128.625C157.219 126.157 159.22 124.156 161.688 124.156Z" fill="#5941A9"/>
<path d="M189 40L64 165" stroke="#5941A9" strokeWidth="10" strokeLinecap="round"/>
</svg>
