<svg width="111" height="51" viewBox="0 0 249 188" fill="none" xmlns="http://www.w3.org/2000/svg">
<path d="M153.442 50.5C153.217 49.9939 146.007 40.0661 133.941 28C117.872 11.9287 99.1602 0 76.8165 0C54.4728 0 35.011 12.9287 18.9415 29C6.87599 41.0662 0.666747 49.9939 0.441522 50.5C0.150413 51.1553 0 51.8644 0 52.5814C0 53.2984 0.150413 54.0075 0.441522 54.6628C0.666747 55.1695 10.8759 67.9357 22.9414 80C39.0108 96.0675 54.4729 105 76.8166 105C99.1603 105 115.372 95.5675 131.441 79.5C143.507 67.4357 153.217 55.1696 153.442 54.6628C153.733 54.0075 153.883 53.2985 153.883 52.5814C153.883 51.8644 153.733 51.1553 153.442 50.5ZM76.8166 29.9379C81.3779 29.9379 85.8368 31.2905 89.6295 33.8246C93.4221 36.3588 96.378 39.9606 98.1236 44.1747C99.8691 48.3889 100.326 53.026 99.436 57.4997C98.5461 61.9733 96.3496 66.0827 93.1243 69.308C89.8989 72.5334 85.7896 74.7299 81.3159 75.6197C76.8422 76.5096 72.2051 76.0529 67.991 74.3074C63.7768 72.5618 60.175 69.6058 57.6408 65.8132C55.1067 62.0206 53.7541 57.5617 53.7541 53.0004C53.761 46.8859 56.193 41.0239 60.5166 36.7003C64.8401 32.3768 70.7022 29.9448 76.8166 29.9379Z" fill="#5941A9"/>
<path d="M189.441 39L64.4414 164" stroke="#5941A9" strokeWidth="10" strokeLinecap="round"/>
<path fillRule="evenodd" clipRule="evenodd" d="M180.64 104.759L177.65 102.643C173.381 99.6222 168.281 98 163.052 98H159.403C156.994 98 154.562 98.1519 152.292 98.9568C138.095 103.992 128.33 122.4 129.036 164.153C129.178 172.566 131.147 181.864 138.737 185.493C141.103 186.625 143.876 187.375 147.034 187.375C150.824 187.375 153.833 186.295 156.156 184.772C158.592 183.176 160.736 181.101 162.88 179.027C165.529 176.464 168.177 173.903 171.371 172.246C174.85 170.442 178.713 169.5 182.632 169.5H194.535C198.454 169.5 202.316 170.442 205.796 172.246C208.99 173.903 211.638 176.464 214.287 179.027C216.431 181.101 218.575 183.176 221.011 184.772C223.334 186.295 226.343 187.375 230.133 187.375C233.29 187.375 236.064 186.625 238.43 185.493C246.02 181.864 247.988 172.566 248.131 164.153C248.837 122.4 239.071 103.992 224.874 98.9568C222.605 98.1519 220.172 98 217.764 98H214.114C208.886 98 203.785 99.6222 199.517 102.643L196.527 104.759C194.204 106.403 191.429 107.286 188.583 107.286C185.738 107.286 182.963 106.403 180.64 104.759ZM216.885 121.833C219.353 121.833 221.354 123.834 221.354 126.302C221.354 128.77 219.353 130.771 216.885 130.771C214.417 130.771 212.417 128.77 212.417 126.302C212.417 123.834 214.417 121.833 216.885 121.833ZM161.771 123.323C164.239 123.323 166.24 125.324 166.24 127.792V132.26H170.708C173.176 132.26 175.177 134.261 175.177 136.729C175.177 139.197 173.176 141.198 170.708 141.198H166.24V145.667C166.24 148.135 164.239 150.135 161.771 150.135C159.303 150.135 157.302 148.135 157.302 145.667V141.198H152.833C150.365 141.198 148.365 139.197 148.365 136.729C148.365 134.261 150.365 132.26 152.833 132.26H157.302V127.792C157.302 125.324 159.303 123.323 161.771 123.323ZM230.292 135.24C230.292 137.708 228.291 139.708 225.823 139.708C223.355 139.708 221.354 137.708 221.354 135.24C221.354 132.772 223.355 130.771 225.823 130.771C228.291 130.771 230.292 132.772 230.292 135.24ZM207.948 139.708C210.416 139.708 212.417 137.708 212.417 135.24C212.417 132.772 210.416 130.771 207.948 130.771C205.48 130.771 203.479 132.772 203.479 135.24C203.479 137.708 205.48 139.708 207.948 139.708ZM221.354 144.177C221.354 141.709 219.353 139.708 216.885 139.708C214.417 139.708 212.417 141.709 212.417 144.177C212.417 146.645 214.417 148.646 216.885 148.646C219.353 148.646 221.354 146.645 221.354 144.177Z" fill="#5941A9"/>
</svg>
