<svg width="132" height="132" viewBox="0 0 132 132" fill="none" xmlns="http://www.w3.org/2000/svg">
<g clip-path="url(#clip0_133_48)">
<path d="M126.5 99H110V82.5C110 81.0413 109.421 79.6424 108.389 78.6109C107.358 77.5795 105.959 77 104.5 77C103.042 77 101.643 77.5795 100.611 78.6109C99.5798 79.6424 99.0003 81.0413 99.0003 82.5V99H82.5003C81.0416 99 79.6427 99.5795 78.6112 100.611C77.5798 101.642 77.0003 103.041 77.0003 104.5C77.0003 105.959 77.5798 107.358 78.6112 108.389C79.6427 109.421 81.0416 110 82.5003 110H99.0003V126.5C99.0003 127.959 99.5798 129.358 100.611 130.389C101.643 131.421 103.042 132 104.5 132C105.959 132 107.358 131.421 108.389 130.389C109.421 129.358 110 127.959 110 126.5V110H126.5C127.959 110 129.358 109.421 130.389 108.389C131.421 107.358 132 105.959 132 104.5C132 103.041 131.421 101.642 130.389 100.611C129.358 99.5795 127.959 99 126.5 99ZM60.5003 38.5V63.723L45.6118 78.6115C45.0865 79.1189 44.6675 79.7258 44.3793 80.3968C44.091 81.0678 43.9393 81.7895 43.9329 82.5198C43.9266 83.2501 44.0658 83.9743 44.3423 84.6503C44.6188 85.3262 45.0272 85.9403 45.5436 86.4567C46.0601 86.9731 46.6741 87.3815 47.3501 87.658C48.026 87.9346 48.7502 88.0737 49.4805 88.0674C50.2108 88.061 50.9325 87.9093 51.6035 87.6211C52.2746 87.3328 52.8815 86.9138 53.3888 86.3885L69.8888 69.8885C70.9203 68.8573 71.5 67.4586 71.5003 66V38.5C71.5003 37.0413 70.9209 35.6424 69.8894 34.6109C68.858 33.5795 67.459 33 66.0003 33C64.5416 33 63.1427 33.5795 62.1112 34.6109C61.0798 35.6424 60.5003 37.0413 60.5003 38.5ZM81.0043 118.932C69.3083 122.228 56.8493 121.552 45.5786 117.01C34.3078 112.468 24.8619 104.316 18.7201 93.8304C12.5784 83.3451 10.0877 71.1189 11.6382 59.0666C13.1887 47.0142 18.6928 35.8165 27.2884 27.2271C35.884 18.6377 47.0857 13.1418 59.1392 11.6C71.1926 10.0583 83.417 12.5578 93.8979 18.7072C104.379 24.8565 112.524 34.3083 117.058 45.5824C121.592 56.8564 122.259 69.3159 118.954 81.0095C118.731 81.7125 118.651 82.4533 118.719 83.1879C118.788 83.9224 119.004 84.6357 119.353 85.2852C119.703 85.9346 120.18 86.5071 120.756 86.9685C121.332 87.4299 121.994 87.7707 122.704 87.9707C123.414 88.1708 124.157 88.2259 124.889 88.1329C125.621 88.0398 126.327 87.8005 126.964 87.4291C127.602 87.0578 128.158 86.562 128.6 85.9712C129.042 85.3805 129.36 84.7069 129.536 83.9905C133.504 69.9478 132.702 54.9855 127.255 41.4477C121.808 27.9099 112.024 16.5614 99.4361 9.17987C86.8482 1.79838 72.1673 -1.19903 57.6933 0.657223C43.2193 2.51347 29.77 9.11851 19.4521 19.4376C9.13426 29.7567 2.53085 43.2069 0.676352 57.6811C-1.17815 72.1553 1.82103 86.8358 9.20404 99.4228C16.5871 112.01 27.9368 121.792 41.4753 127.238C55.0137 132.683 69.9761 133.484 84.0183 129.514C84.7286 129.331 85.3951 129.009 85.9788 128.565C86.5624 128.121 87.0514 127.564 87.417 126.929C87.7825 126.293 88.0172 125.59 88.1073 124.863C88.1973 124.135 88.1409 123.396 87.9414 122.691C87.7419 121.985 87.4032 121.326 86.9454 120.754C86.4876 120.181 85.9198 119.705 85.2755 119.355C84.6312 119.005 83.9234 118.787 83.1936 118.714C82.4639 118.642 81.727 118.716 81.0263 118.932H81.0043Z" fill="#5941A9"/>
<ellipse cx="66" cy="66.5" rx="56" ry="57.5" fill="#5941A9"/>
<circle cx="104" cy="104" r="28" fill="#5941A9"/>
<path d="M120 104H88" stroke="#010004" stroke-width="7" stroke-linecap="round"/>
<path d="M71.2 38C71.2 35.1281 68.8719 32.8 66 32.8C63.1281 32.8 60.8 35.1281 60.8 38L71.2 38ZM60.8 38L60.8 66L71.2 66L71.2 38L60.8 38Z" fill="#010004"/>
<path d="M49 83.0499L65.9499 66" stroke="#010004" stroke-width="10.4" stroke-linecap="round"/>
</g>
<defs>
<clipPath id="clip0_133_48">
<rect width="132" height="132" fill="white"/>
</clipPath>
</defs>
</svg>
