<svg width="54" height="54" viewBox="0 0 54 54" fill="none" xmlns="http://www.w3.org/2000/svg">
<path d="M27 49.5C39.4263 49.5 49.5 39.4263 49.5 27C49.5 14.5736 39.4263 4.5 27 4.5C14.5736 4.5 4.5 14.5736 4.5 27C4.5 39.4263 14.5736 49.5 27 49.5Z" fill="#FFF8F0" stroke="#FFF8F0" stroke-width="4" stroke-linecap="round" stroke-linejoin="round"/>
<path d="M27.2702 26.755C27.1127 26.7325 26.9102 26.7325 26.7302 26.755C22.7702 26.62 19.6201 23.38 19.6201 19.3975C19.6201 15.325 22.9052 12.0175 27.0002 12.0175C31.0727 12.0175 34.3802 15.325 34.3802 19.3975C34.3577 23.38 31.2302 26.62 27.2702 26.755Z" fill="#010004" stroke="#010004" stroke-width="4" stroke-linecap="round" stroke-linejoin="round"/>
<path d="M42.1649 43.6052C38.1599 47.2727 32.8499 49.5002 26.9999 49.5002C21.15 49.5002 15.84 47.2727 11.835 43.6052C12.06 41.4902 13.41 39.4202 15.8175 37.8002C21.9825 33.7052 32.0624 33.7052 38.1824 37.8002C40.5899 39.4202 41.9399 41.4902 42.1649 43.6052Z" fill="#010004" stroke="#010004" stroke-width="6.5" stroke-linecap="round" stroke-linejoin="round"/>
</svg>
